<?xml version="1.0" encoding="utf-8"?>
<!-- Uploaded to: SVG Repo, www.svgrepo.com, Generator: SVG Repo Mixer Tools -->
<svg fill="#000000" width="800px" height="800px" viewBox="0 0 32 32" version="1.1" xmlns="http://www.w3.org/2000/svg">
<title>blender</title>
<path d="M25.297 21.713c-1.224 1.198-2.901 1.937-4.751 1.937-1.842 0-3.513-0.733-4.738-1.923l0.002 0.002c-0.557-0.559-0.998-1.235-1.282-1.988l-0.013-0.039c-0.2-0.538-0.315-1.16-0.315-1.809 0-0.95 0.247-1.842 0.681-2.615l-0.014 0.027c0.379-0.673 0.86-1.241 1.43-1.705l0.011-0.008c1.157-0.923 2.64-1.481 4.253-1.481 1.606 0 3.083 0.553 4.251 1.479l-0.014-0.011c0.581 0.47 1.062 1.037 1.424 1.679l0.015 0.029c0.348 0.615 0.581 1.34 0.651 2.111l0.002 0.021c0.012 0.136 0.020 0.295 0.020 0.455 0 0.649-0.117 1.27-0.33 1.844l0.012-0.037c-0.297 0.793-0.737 1.471-1.294 2.032l0-0zM10.189 19.538c0.040 0.638 0.154 1.233 0.334 1.8l-0.014-0.053c0.431 1.338 1.113 2.489 1.997 3.452l-0.006-0.007c0.956 1.048 2.115 1.893 3.417 2.474l0.065 0.026c1.341 0.6 2.907 0.95 4.555 0.95 1.661 0 3.238-0.355 4.661-0.994l-0.072 0.029c1.366-0.613 2.524-1.461 3.473-2.503l0.008-0.008c0.876-0.959 1.558-2.112 1.971-3.386l0.018-0.066c0.254-0.78 0.4-1.677 0.4-2.609 0-0.435-0.032-0.862-0.093-1.28l0.006 0.047c-0.19-1.307-0.638-2.48-1.291-3.509l0.022 0.036c-0.629-0.999-1.399-1.844-2.292-2.536l-0.022-0.017h0.003l-9.395-7.213c-0.326-0.221-0.728-0.353-1.16-0.353-0.434 0-0.838 0.133-1.171 0.36l0.007-0.005c-0.337 0.181-0.563 0.531-0.563 0.934 0 0.338 0.159 0.639 0.406 0.833l0.002 0.002-0.001 0.001 3.906 3.178-11.925 0.012c-0.019-0.001-0.042-0.001-0.065-0.001-0.946 0-1.752 0.606-2.049 1.45l-0.005 0.015c-0.192 0.831 0.475 1.521 1.5 1.525v0.002l6.036-0.012-10.814 8.3c-0.607 0.379-1.006 1.044-1.006 1.801 0 0.402 0.112 0.778 0.307 1.099l-0.005-0.009c0.393 0.39 0.934 0.631 1.531 0.631 0.595 0 1.134-0.239 1.527-0.626l-0 0 5.878-4.81c-0.043 0.306-0.072 0.665-0.079 1.030l-0 0.009zM16.637 17.517c0.069-1.012 0.553-1.9 1.281-2.502l0.006-0.005c0.746-0.615 1.711-0.987 2.764-0.987s2.018 0.373 2.771 0.993l-0.008-0.006c0.734 0.606 1.217 1.494 1.284 2.495l0.001 0.011c0.003 0.050 0.004 0.108 0.004 0.166 0 0.993-0.416 1.889-1.083 2.523l-0.002 0.001c-0.774 0.726-1.819 1.172-2.968 1.172s-2.194-0.446-2.97-1.174l0.002 0.002c-0.669-0.635-1.085-1.531-1.085-2.524 0-0.058 0.001-0.116 0.004-0.174l-0 0.008z"></path>
</svg>